<svg width="28" height="10" viewBox="0 0 28 10" fill="none" xmlns="http://www.w3.org/2000/svg">
<path d="M20.1956 1.25901L19.6865 2.48745H20.7075L20.1956 1.25901ZM14.3209 2.02025C14.4169 1.9704 14.4734 1.86196 14.4734 1.72729C14.4734 1.59533 14.414 1.49976 14.318 1.45485C14.2306 1.40506 14.0962 1.39931 13.9672 1.39931H13.0564V2.08378H13.955C14.099 2.08381 14.2193 2.08171 14.3209 2.02025ZM2.65004 1.25901L2.14669 2.48745H3.1564L2.65004 1.25901ZM26.0845 9.12886H24.6562V8.46792H26.0788C26.2198 8.46792 26.3186 8.44951 26.3781 8.3916C26.4297 8.34399 26.4655 8.27464 26.4655 8.1906C26.4655 8.10078 26.4297 8.02947 26.3752 7.9868C26.3216 7.93975 26.2433 7.91833 26.1145 7.91833C25.42 7.89484 24.5536 7.93968 24.5536 6.96433C24.5536 6.51732 24.8386 6.04675 25.6148 6.04675H27.0882V5.43349H25.7193C25.3062 5.43349 25.0061 5.53201 24.7935 5.68526V5.43349H22.7688C22.4451 5.43349 22.065 5.51339 21.8852 5.68526V5.43349H18.2695V5.68526C17.9817 5.47848 17.4962 5.43349 17.2721 5.43349H14.8871V5.68526C14.6595 5.46571 14.1531 5.43349 13.8446 5.43349H11.1754L10.5647 6.09173L9.9926 5.43349H6.0054V9.73441H9.91754L10.5469 9.06561L11.1397 9.73441L13.5511 9.73647V8.7247H13.7882C14.1082 8.72978 14.4855 8.71688 14.8185 8.57355V9.73427H16.8075V8.61321H16.9034C17.0258 8.61321 17.038 8.61833 17.038 8.74016V9.73402H23.0802C23.4638 9.73402 23.8649 9.63634 24.0869 9.4587V9.73402H26.0035C26.4023 9.73402 26.7918 9.67835 27.0882 9.53583V8.73462C26.9086 8.99623 26.5583 9.12886 26.0845 9.12886ZM13.8197 8.11329H12.8967V9.14713H11.4591L10.5483 8.12686L9.60183 9.14716H6.67195V6.06495H9.64691L10.5569 7.07529L11.4977 6.06495H13.8612C14.4482 6.06495 15.1077 6.22682 15.1077 7.08037C15.1077 7.93656 14.4662 8.11329 13.8197 8.11329ZM18.2578 7.97355C18.3623 8.12399 18.3774 8.26444 18.3804 8.53615V9.14716H17.6378V8.76158C17.6378 8.57615 17.6557 8.30156 17.5182 8.15824C17.4102 8.04784 17.2454 8.02147 16.9755 8.02147H16.1851V9.14716H15.4419V6.06495H17.1495C17.5241 6.06495 17.7968 6.0815 18.0395 6.21038C18.2729 6.35082 18.4198 6.54323 18.4198 6.89484C18.4198 7.38676 18.0903 7.63775 17.8956 7.71484C18.0601 7.77532 18.1947 7.88376 18.2578 7.97355ZM21.3132 6.70236H19.5812V7.26268H21.2709V7.89158H19.5812V8.50484L21.3132 8.50757V9.14713H18.8446V6.06491H21.3132V6.70236ZM23.2139 9.14709H21.7733V8.48615H23.2082C23.3485 8.48615 23.448 8.46768 23.5103 8.40979C23.5611 8.36215 23.5977 8.29283 23.5977 8.2089C23.5977 8.11901 23.5581 8.0477 23.5075 8.00493C23.4509 7.95795 23.3728 7.93663 23.244 7.93663C22.5523 7.91304 21.686 7.95788 21.686 6.98259C21.686 6.53552 21.9682 6.06495 22.7436 6.06495H24.2265V6.72088H22.8696C22.7351 6.72088 22.6476 6.72599 22.5733 6.77669C22.4922 6.82658 22.4621 6.90063 22.4621 6.99834C22.4621 7.11459 22.531 7.19376 22.6239 7.22794C22.7021 7.25497 22.7858 7.26286 22.9118 7.26286L23.3101 7.27366C23.7114 7.28326 23.9872 7.35254 24.1547 7.52149C24.2986 7.66986 24.376 7.85729 24.376 8.17447C24.3759 8.83755 23.9599 9.14709 23.2139 9.14709ZM17.4773 6.75208C17.388 6.69921 17.2561 6.6964 17.1244 6.6964H16.2136V7.38862H17.1122C17.2561 7.38862 17.3785 7.38357 17.4773 7.32509C17.5732 7.26738 17.6306 7.16108 17.6306 7.02926C17.6306 6.89747 17.5732 6.802 17.4773 6.75208ZM25.7416 6.69633C25.6071 6.69633 25.5176 6.70142 25.4423 6.75201C25.3643 6.802 25.3343 6.87601 25.3343 6.97379C25.3343 7.09002 25.4002 7.16915 25.496 7.2034C25.5741 7.23043 25.6578 7.23832 25.781 7.23832L26.182 7.24894C26.5865 7.25893 26.8566 7.32824 27.0212 7.49716C27.0512 7.52058 27.0692 7.54695 27.0898 7.57338V6.6964H25.7417L25.7416 6.69633ZM13.8455 6.69633H12.881V7.48135H13.8369C14.1211 7.48135 14.2978 7.3409 14.2979 7.07427C14.2978 6.80474 14.1125 6.69633 13.8455 6.69633ZM7.40865 6.69633V7.25672H9.03243V7.88562H7.40865V8.49881H9.22718L10.0721 7.59459L9.26308 6.69633H7.40865ZM12.1574 8.85175V6.38069L11.0218 7.59631L12.1574 8.85175ZM7.47095 3.90308V4.43416H13.6506L13.6478 3.31065H13.7673C13.8511 3.31356 13.8755 3.32124 13.8755 3.45891V4.4342H17.0716V4.17262C17.3294 4.31019 17.7303 4.4342 18.258 4.4342H19.6026L19.8904 3.74977H20.5284L20.8098 4.4342H23.4009V3.78405L23.7931 4.43416H25.8696V0.136475H23.8147V0.64403L23.527 0.136475H21.4184V0.64403L21.1542 0.136475H18.306C17.8291 0.136475 17.4102 0.202737 17.0716 0.38743V0.136475H15.1061V0.38743C14.8906 0.197057 14.5971 0.136475 14.2708 0.136475H7.09003L6.60824 1.24653L6.11341 0.136475H3.8517V0.64403L3.6032 0.136475H1.67433L0.7786 2.17988V3.81438L2.10311 0.73287H3.20208L4.46001 3.65041V0.73287H5.66728L6.63527 2.82329L7.52456 0.73287H8.75605V3.81438H7.99789L7.99512 1.401L6.92255 3.81438H6.27311L5.1978 1.39886V3.81438H3.6933L3.40911 3.12704H1.86902L1.58188 3.81438H0.7786L0.778564 4.4343H2.04242L2.32738 3.74984H2.96539L3.24959 4.4343H5.73618V3.91097L5.9581 4.43647H7.24895L7.47095 3.90308ZM17.2088 1.09216C17.4478 0.846217 17.8223 0.7328 18.332 0.7328H19.0481V1.39307H18.347C18.0772 1.39307 17.9247 1.43304 17.7779 1.57566C17.6517 1.70538 17.5653 1.95066 17.5653 2.27363C17.5653 2.60378 17.6312 2.8418 17.7686 2.99729C17.8825 3.11922 18.0895 3.15621 18.2842 3.15621H18.6165L19.6589 0.732905H20.7672L22.0194 3.64753V0.73294H23.1457L24.4459 2.87903V0.73294H25.2035V3.81435H24.1553L22.7533 1.50155V3.81435H21.2469L20.9591 3.12701H19.4226L19.1433 3.81435H18.2777C17.9182 3.81435 17.463 3.73518 17.2053 3.4735C16.9453 3.21189 16.8101 2.85747 16.8101 2.29715C16.81 1.84008 16.8907 1.42231 17.2088 1.09216ZM15.6874 0.732835H16.4421V3.81435H15.6874V0.732835ZM12.2847 0.732835H13.9859C14.3638 0.732835 14.6425 0.742827 14.8816 0.880435C15.1156 1.01808 15.2559 1.21904 15.2559 1.56269C15.2559 2.05405 14.9266 2.30784 14.7348 2.3841C14.8965 2.44545 15.0348 2.55382 15.1007 2.64357C15.2052 2.79685 15.2231 2.93376 15.2231 3.20894V3.81431H14.4771L14.4743 3.42571C14.4743 3.24025 14.4921 2.97359 14.3576 2.82543C14.2495 2.71709 14.0847 2.6935 13.8184 2.6935H13.0244V3.81435H12.2847L12.2847 0.732835ZM9.30291 0.732835H11.7739V1.37453H10.0427V1.92997H11.7323V2.56164H10.0427V3.17704H11.7739V3.81431H9.30291V0.732835Z" fill="#2557D6"/>
</svg>
