<svg width="24" height="24" viewBox="0 0 24 24" fill="none" xmlns="http://www.w3.org/2000/svg">
<path d="M22.501 12.2326C22.501 11.3693 22.4296 10.7393 22.2748 10.0859H12.2153V13.9826H18.12C18.001 14.9509 17.3582 16.4093 15.9296 17.3892L15.9096 17.5197L19.0902 19.9344L19.3106 19.9559C21.3343 18.1242 22.501 15.4292 22.501 12.2326Z" fill="#4285F4"/>
<path d="M12.214 22.4996C15.1068 22.4996 17.5353 21.5662 19.3092 19.9562L15.9282 17.3895C15.0235 18.0078 13.8092 18.4395 12.214 18.4395C9.38069 18.4395 6.97596 16.6079 6.11874 14.0762L5.99309 14.0866L2.68583 16.595L2.64258 16.7128C4.40446 20.1428 8.0235 22.4996 12.214 22.4996Z" fill="#34A853"/>
<path d="M6.12046 14.0775C5.89428 13.4241 5.76337 12.7241 5.76337 12.0008C5.76337 11.2774 5.89428 10.5774 6.10856 9.9241L6.10257 9.78496L2.75386 7.23633L2.64429 7.2874C1.91814 8.71075 1.50146 10.3091 1.50146 12.0008C1.50146 13.6924 1.91814 15.2907 2.64429 16.7141L6.12046 14.0775Z" fill="#FBBC05"/>
<path d="M12.2141 5.55997C14.2259 5.55997 15.583 6.41163 16.3569 7.12335L19.3807 4.23C17.5236 2.53834 15.1069 1.5 12.2141 1.5C8.02353 1.5 4.40447 3.85665 2.64258 7.28662L6.10686 9.92332C6.97598 7.39166 9.38073 5.55997 12.2141 5.55997Z" fill="#EB4335"/>
</svg>
