<svg width="42" height="45" viewBox="0 0 42 45" fill="none" xmlns="http://www.w3.org/2000/svg">
<path d="M27.5 36C26.9 36 26.2 35.8 25.8 35.3C24.8 34.3 24.8 32.8 25.8 31.8L41.2 16.4C40.6 14.3 39.6 12.3 38.4 10.6L25.2 23.8C24.7 24.3 24.1 24.5 23.5 24.5C22.9 24.5 22.2 24.3 21.8 23.8C20.8 22.8 20.8 21.3 21.8 20.3L35.1 6.9C33.1 5.1 30.7 3.6 28 2.7L11.7 19C11.2 19.5 10.6 19.7 10 19.7C9.4 19.7 8.7 19.5 8.3 19C7.3 18 7.3 16.5 8.3 15.5L22.3 1.5C21.9 1.5 21.5 1.5 21 1.5C9.4 1.5 0 10.9 0 22.5C0 34.1 9.4 43.5 21 43.5C32.6 43.5 42 34.1 42 22.5L29.2 35.3C28.7 35.8 28.1 36 27.5 36ZM21.9 31.2C21.4 31.7 20.8 31.9 20.2 31.9C19.6 31.9 18.9 31.7 18.5 31.2L13.2 26C12.2 25 12.2 23.5 13.2 22.5C14.2 21.5 15.7 21.5 16.7 22.5L22 27.8C22.9 28.7 22.9 30.3 21.9 31.2Z" fill="#F2426E"/>
</svg>
